<?xml version="1.0" standalone="no"?>
<!DOCTYPE svg PUBLIC "-//W3C//DTD SVG 20010904//EN"
 "http://www.w3.org/TR/2001/REC-SVG-20010904/DTD/svg10.dtd">
<svg version="1.0" xmlns="http://www.w3.org/2000/svg"
 width="262.000000pt" height="262.000000pt" viewBox="0 0 262.000000 262.000000"
 preserveAspectRatio="xMidYMid meet">
<metadata>
Created by potrace 1.11, written by Peter Selinger 2001-2013
</metadata>
<g transform="translate(0.000000,262.000000) scale(0.100000,-0.100000)"
fill="#000000" stroke="none">
<path d="M1118 2323 c-26 -4 -27 -7 -23 -46 3 -23 7 -68 10 -100 l6 -57 57 6
c67 8 66 7 58 31 -5 15 -13 18 -41 15 -30 -4 -35 -1 -35 17 0 15 6 21 21 21
28 0 21 34 -9 38 -34 5 -27 30 11 34 24 2 33 8 35 26 3 19 -1 22 -30 21 -18
-1 -45 -4 -60 -6z"/>
<path d="M1270 2230 c0 -93 1 -100 20 -100 17 0 20 7 20 41 0 48 15 44 24 -6
6 -28 11 -35 30 -35 23 0 23 2 13 41 -7 31 -7 47 1 60 15 24 15 72 0 87 -7 7
-34 12 -60 12 l-48 0 0 -100z m70 45 c0 -8 -7 -15 -15 -15 -8 0 -15 7 -15 15
0 8 7 15 15 15 8 0 15 -7 15 -15z"/>
<path d="M1440 2306 c0 -17 5 -26 16 -26 15 0 16 -9 10 -74 -6 -63 -4 -75 10
-80 25 -10 34 2 34 48 0 70 10 107 29 104 10 -2 17 5 19 20 3 17 -1 22 -20 22
-13 0 -40 3 -60 6 -36 6 -38 5 -38 -20z"/>
<path d="M960 2303 c-14 -3 -28 -8 -32 -12 -4 -4 0 -48 9 -99 15 -83 18 -92
38 -92 21 0 22 4 17 45 -4 40 -2 45 15 45 42 0 58 55 27 98 -15 22 -25 24 -74
15z m40 -59 c0 -9 -5 -14 -12 -12 -18 6 -21 28 -4 28 9 0 16 -7 16 -16z"/>
<path d="M1610 2306 c0 -2 4 -26 10 -55 5 -29 6 -70 1 -95 -6 -36 -5 -46 6
-50 27 -11 31 -6 37 38 4 24 20 64 36 90 17 26 30 48 30 50 0 2 -9 6 -20 9
-13 3 -25 -2 -35 -16 l-15 -21 0 21 c0 11 -7 24 -16 27 -17 7 -34 8 -34 2z"/>
<path d="M788 2263 c-9 -2 -20 -13 -23 -23 -7 -22 24 -152 39 -162 20 -14 63
-8 86 10 21 17 21 18 4 87 -9 39 -21 76 -27 83 -9 12 -45 14 -79 5z m56 -70
c3 -16 8 -38 12 -50 5 -17 2 -23 -9 -23 -15 0 -37 53 -37 88 0 24 28 12 34
-15z"/>
<path d="M1892 2213 c-22 -43 -43 -126 -38 -148 5 -18 15 -26 41 -31 19 -3 41
-4 49 -1 15 6 56 118 56 154 0 40 -90 61 -108 26z m50 -84 c-9 -27 -22 -49
-29 -49 -17 0 -16 15 3 66 10 27 21 41 29 38 10 -4 10 -15 -3 -55z"/>
<path d="M618 2207 c-16 -6 -28 -14 -28 -18 0 -5 14 -47 31 -94 24 -65 35 -85
48 -83 17 4 19 26 7 68 l-7 25 21 -24 c11 -13 24 -30 29 -38 8 -15 41 -8 41 9
0 5 -9 23 -21 39 -11 16 -18 37 -15 45 3 8 -1 31 -9 50 -11 28 -19 34 -42 33
-15 -1 -40 -6 -55 -12z m53 -52 c1 -17 -18 -17 -25 0 -4 11 -1 15 10 13 8 -2
15 -7 15 -13z"/>
<path d="M2026 2096 c-21 -47 -35 -89 -31 -95 12 -20 33 -11 45 20 10 24 18
30 36 26 14 -2 25 2 28 10 10 24 7 33 -9 33 -8 0 -15 7 -15 16 0 12 6 15 23 9
74 -23 91 9 22 43 -25 12 -49 22 -54 22 -4 0 -25 -38 -45 -84z"/>
<path d="M468 2143 c-21 -9 -38 -19 -38 -23 0 -4 18 -46 41 -94 36 -77 42 -85
59 -76 18 9 18 13 4 46 -8 20 -14 37 -12 39 2 1 13 8 26 14 24 13 28 40 11 74
-22 41 -34 43 -91 20z m52 -48 c0 -8 -7 -15 -15 -15 -16 0 -20 12 -8 23 11 12
23 8 23 -8z"/>
<path d="M687 1782 l-67 -68 0 -327 0 -327 68 -65 67 -64 174 -1 174 0 73 66
74 66 0 69 0 69 -110 0 -110 0 0 -35 0 -36 -97 3 -98 3 -3 253 -2 252 100 0
100 0 0 -30 0 -30 110 0 110 0 0 68 0 67 -74 68 -75 67 -173 0 -174 0 -67 -68z"/>
<path d="M1449 1783 l-69 -66 0 -152 0 -152 69 -62 69 -61 136 0 136 0 0 -80
0 -81 -97 3 -98 3 -3 33 -3 32 -105 0 -104 0 0 -69 0 -69 68 -66 67 -66 175 0
175 0 73 66 72 66 0 148 0 148 -70 66 -70 66 -140 0 -140 0 0 75 0 75 100 0
100 0 0 -30 0 -30 110 0 110 0 0 68 0 69 -74 66 -74 67 -172 0 -172 0 -69 -67z"/>
<path d="M210 1499 c0 -86 1 -92 32 -130 31 -39 32 -39 100 -39 l68 0 0 -40 0
-40 -50 0 c-38 0 -50 4 -50 15 0 11 -12 15 -50 15 -48 0 -50 -1 -50 -28 0 -19
11 -39 33 -60 32 -31 36 -32 118 -32 83 0 86 1 117 33 29 30 32 38 32 98 0 60
-2 67 -33 97 -30 30 -38 32 -100 32 l-67 0 0 40 0 40 100 0 100 0 0 45 0 45
-150 0 -150 0 0 -91z"/>
<path d="M2142 1557 l-32 -33 0 -150 0 -150 33 -32 c32 -31 36 -32 118 -32 83
0 86 1 117 33 l32 33 0 152 0 152 -32 30 c-31 28 -38 29 -119 30 -83 0 -86 -1
-117 -33z m168 -182 l0 -125 -50 0 -50 0 0 125 0 125 50 0 50 0 0 -125z"/>
<path d="M778 786 c-128 -34 -197 -171 -156 -307 15 -52 73 -117 122 -140 38
-17 78 -19 574 -19 504 0 535 1 570 19 87 45 132 119 132 221 0 52 -6 75 -28
115 -32 58 -92 104 -153 116 -74 14 -1006 10 -1061 -5z m282 -146 c11 -11 20
-31 20 -44 0 -31 -43 -66 -81 -66 -26 0 -29 -3 -29 -35 0 -31 -3 -35 -25 -35
l-25 0 0 100 0 100 60 0 c47 0 64 -4 80 -20z m102 -51 c2 -55 7 -74 21 -83 12
-8 22 -8 35 0 13 9 18 28 20 83 3 68 4 71 27 71 24 0 25 -2 25 -75 0 -67 -3
-79 -25 -100 -34 -35 -96 -35 -130 0 -22 21 -25 33 -25 100 0 73 1 75 25 75
23 0 24 -3 27 -71z m235 36 l17 -36 18 36 c15 28 24 35 49 35 l30 0 -27 -47
c-15 -27 -31 -52 -36 -57 -4 -6 -8 -29 -8 -53 0 -39 -2 -43 -25 -43 -22 0 -25
4 -25 37 0 23 -13 60 -35 100 l-35 63 30 0 c25 0 33 -6 47 -35z m307 6 c16
-16 21 -34 21 -71 0 -70 -26 -95 -100 -95 -66 0 -94 23 -101 81 -6 46 11 83
46 102 35 18 107 9 134 -17z"/>
<path d="M970 595 c0 -23 4 -26 28 -23 38 4 38 42 0 46 -24 3 -28 0 -28 -23z"/>
<path d="M1587 602 c-35 -38 -9 -102 40 -102 47 0 71 71 35 103 -24 22 -55 21
-75 -1z"/>
</g>
</svg>
